# xmcd
#
# Track frame offsets:
#	150
#	14097
#	28092
#	41780
#	54867
#	67632
#	80604
#	93542
#	106565
#	121055
#	134570
#	148592
#	162097
#	174237
#	184917
#	197547
#	209442
#	222592
#	236837
#	250735
#	262755
#	275787
#	287845
#	301807
#
# Disc length: 4188 seconds
#
# Revision: 0
# Processed by: cddbd v1.5.2PL0 Copyright (c) Steve Scherf et al.
# Submitted via: dBpowerAMP V4.0
#
DISCID=59105a18
DTITLE=Europe, James Reese - James Reese Europe featuring Noble Sissle
DYEAR=1996
DGENRE=Blues
TTITLE0=Broadway Hit Medley:Intro,I've Got the Blue Ridge Blues,Madelon,Till We Meet Again,Smiles
TTITLE1=St Louis Blues
TTITLE2=How 'Ya Gonna Keep 'Em Down on the Farm (vocal:  Noble Sissle)
TTITLE3=Arabian Nights
TTITLE4=Indianola
TTITLE5=Darktown Strutter's Ball
TTITLE6=Hesitating Blues
TTITLE7=Plantation Echoes (vocal:  Boble Sissle)
TTITLE8=That Moaning Trombone
TTITLE9=Memphis Blues
TTITLE10=Russian Rag
TTITLE11=Ja Da
TTITLE12=Mirandy (vocal:  Noble Sissle)
TTITLE13=On Patrol in No Man's Land (vocal:  Noble Sissle)
TTITLE14=Jazz Baby (vocal:  C. Creighton Thompson)
TTITLE15=All of No Man's Land Is Ours (vocal:  Noble Sissle)
TTITLE16=Jazzola (vocal:  Noble Sissle)
TTITLE17=When the Bees Make Honey (vocal:  Noble Sissle)
TTITLE18=Dancing Deacon, The
TTITLE19=That Got 'Em
TTITLE20=Clarinet Marmalade
TTITLE21=Missouri Blues
TTITLE22=Dixie is Dixie Once More (vocal:  Noble Sissle)
TTITLE23=My Choc'late Soldier Sammy Boy (vocal:  Noble Sissle)
EXTD=James Reese Europe and the 369th U.S. Infantry "Hell Fighters" Band featuring Noble Sissle.  The complete Pathe recordings 1919
EXTT0=
EXTT1=
EXTT2=
EXTT3=
EXTT4=
EXTT5=
EXTT6=
EXTT7=
EXTT8=
EXTT9=
EXTT10=
EXTT11=
EXTT12=
EXTT13=
EXTT14=
EXTT15=
EXTT16=
EXTT17=
EXTT18=
EXTT19=
EXTT20=
EXTT21=
EXTT22=
EXTT23=
PLAYORDER=
